<svg width="28" height="28" viewBox="0 0 28 28" fill="none" xmlns="http://www.w3.org/2000/svg">
<rect width="28" height="28" rx="4" fill="#6200EE"/>
<g clip-path="url(#clip0_29067_11196)">
<path d="M15.7282 17.7093C15.472 17.1812 15.1407 16.7968 14.5689 17.0312L13.4407 17.45C12.5376 17.8687 12.0876 17.45 11.6376 16.8218L9.60948 12.2031C9.35636 11.675 9.48761 11.1781 10.0595 10.9437L11.6376 10.3156C12.2095 10.0812 12.1189 9.58434 11.8626 9.05621L10.5095 6.53746C10.2532 6.00934 9.72823 5.88121 9.15636 6.11559C8.01261 6.59059 7.06573 7.32809 6.45323 8.42496C5.70323 9.76559 6.07823 11.6281 6.22823 12.4125C6.37823 13.1968 6.90323 14.5687 7.58136 15.9812C8.25948 17.3937 8.85323 18.5031 9.38448 19.1312C9.91573 19.7593 11.1876 21.4781 12.7657 21.8593C14.0595 22.1718 15.4532 21.9093 16.597 21.4375C17.1689 21.2031 17.172 20.7062 16.9157 20.175L15.7282 17.7093ZM18.922 9.69059H17.0751L19.5376 12.1531H14.0001V13.3843H19.5376L17.0782 15.8437H18.9251L22.0032 12.7656L18.922 9.69059Z" fill="white"/>
</g>
<defs>
<clipPath id="clip0_29067_11196">
<rect width="16" height="16" fill="white" transform="translate(6 6)"/>
</clipPath>
</defs>
</svg>
