<svg width="89" height="82" viewBox="0 0 89 82" fill="none" xmlns="http://www.w3.org/2000/svg">
<circle cx="38.5" cy="39.5" r="38.5" fill="#4B528E"/>
<rect x="3" width="75.8476" height="75.6755" rx="37.8377" fill="#E1E3F4"/>
<rect x="9.41797" y="6.40527" width="63.0123" height="62.8647" rx="31.4323" fill="white"/>
<rect x="9.41797" y="6.40527" width="63.0123" height="62.8647" rx="31.4323" stroke="#616bc9" stroke-width="2"/>
<g clip-path="url(#clip0_12105_8293)">
<path d="M36.2845 25.7833C35.4673 25.2959 34.4403 25.2798 33.6066 25.7351C32.7729 26.1904 32.2539 27.0474 32.2539 27.9793V46.8331C32.2539 47.7651 32.7729 48.6221 33.6066 49.0774C34.4403 49.5327 35.4673 49.5112 36.2845 49.0292L52.1858 39.6023C52.9754 39.1363 53.4557 38.3061 53.4557 37.4062C53.4557 36.5064 52.9754 35.6815 52.1858 35.2102L36.2845 25.7833Z" fill="#616bc9"/>
</g>
<path d="M69.1815 81C79.5723 81 87.9996 72.5951 87.9996 62.2223C87.9996 51.8495 79.5723 43.4446 69.1815 43.4446C58.7906 43.4446 50.3633 51.8495 50.3633 62.2223C50.3633 72.5951 58.7906 81 69.1815 81Z" fill="#FF8533" stroke="white" stroke-width="2"/>
<g clip-path="url(#clip1_12105_8293)">
<path d="M62.8164 62.2224L63.761 54.3057C63.8273 53.7502 64.2781 53.3335 64.815 53.3335H70.4031C70.9002 53.3335 71.3013 53.7536 71.3013 54.2745C71.3013 54.3856 71.2814 54.5002 71.2449 54.6043L69.7103 58.889H74.3273C74.9968 58.889 75.5437 59.4585 75.5437 60.1633C75.5437 60.4203 75.4708 60.6703 75.3316 60.8821L68.9613 70.639C68.7657 70.9376 68.4442 71.1147 68.1029 71.1147H68.0067C67.4864 71.1147 67.0621 70.6703 67.0621 70.1251C67.0621 70.0453 67.0721 69.9654 67.092 69.8855L68.6497 63.3335H63.877C63.2904 63.3335 62.8164 62.8369 62.8164 62.2224Z" fill="white"/>
</g>
<defs>
<clipPath id="clip0_12105_8293">
<rect width="24" height="24" fill="white" transform="translate(30.418 25.4053)"/>
</clipPath>
<clipPath id="clip1_12105_8293">
<rect width="12.7273" height="17.7777" fill="white" transform="translate(62.8164 53.3335)"/>
</clipPath>
</defs>
</svg>
